<svg width="27" height="27" viewBox="0 0 27 27" fill="none" xmlns="http://www.w3.org/2000/svg">
<path d="M0 13.5C0 11.682 0.36 9.936 1.08 8.262C1.8 6.588 2.754 5.148 3.942 3.942C5.13 2.736 6.57 1.782 8.262 1.08C9.954 0.378 11.7 0.018 13.5 0C15.336 0 17.091 0.36 18.765 1.08C20.439 1.8 21.87 2.754 23.058 3.942C24.246 5.13 25.2 6.57 25.92 8.262C26.64 9.954 27 11.7 27 13.5C27 15.336 26.64 17.082 25.92 18.738C25.2 20.394 24.246 21.834 23.058 23.058C21.87 24.282 20.43 25.245 18.738 25.947C17.046 26.649 15.3 27 13.5 27C11.7 27 9.954 26.649 8.262 25.947C6.57 25.245 5.13 24.282 3.942 23.058C2.754 21.834 1.8 20.394 1.08 18.738C0.36 17.082 0 15.336 0 13.5ZM3.375 13.5C3.375 15.336 3.825 17.037 4.725 18.603C5.625 20.169 6.858 21.393 8.424 22.275C9.99 23.157 11.682 23.607 13.5 23.625C15.318 23.643 17.01 23.193 18.576 22.275C20.142 21.357 21.375 20.133 22.275 18.603C23.175 17.073 23.625 15.372 23.625 13.5C23.625 11.628 23.175 9.936 22.275 8.424C21.375 6.912 20.142 5.688 18.576 4.752C17.01 3.816 15.318 3.357 13.5 3.375C11.682 3.393 9.99 3.852 8.424 4.752C6.858 5.652 5.625 6.876 4.725 8.424C3.825 9.972 3.375 11.664 3.375 13.5ZM11.826 13.5V8.451C11.826 7.983 11.988 7.587 12.312 7.263C12.636 6.939 13.032 6.768 13.5 6.75C13.968 6.732 14.364 6.903 14.688 7.263C15.012 7.623 15.183 8.019 15.201 8.451V11.826H18.576C19.026 11.826 19.422 11.988 19.764 12.312C20.106 12.636 20.268 13.032 20.25 13.5C20.232 13.968 20.07 14.373 19.764 14.715C19.458 15.057 19.062 15.219 18.576 15.201H13.5C13.032 15.201 12.636 15.039 12.312 14.715C11.988 14.391 11.826 13.986 11.826 13.5Z" fill="#5686E5"/>
</svg>
