<svg width="32" height="32" viewBox="0 0 32 32" fill="none" xmlns="http://www.w3.org/2000/svg">
<path d="M9.33301 10.6666C11.5421 10.6666 13.333 8.87576 13.333 6.66663C13.333 4.45749 11.5421 2.66663 9.33301 2.66663C7.12387 2.66663 5.33301 4.45749 5.33301 6.66663C5.33301 8.87576 7.12387 10.6666 9.33301 10.6666Z" stroke="#5686E5" stroke-width="3.5"/>
<path d="M13.3335 16H9.33348H7.86461C5.84732 16 4.14571 17.5021 3.89549 19.5039L3.04149 26.3359C2.84255 27.9275 4.08357 29.3333 5.68756 29.3333H12.0001" stroke="#5686E5" stroke-width="3.5" stroke-linecap="round" stroke-linejoin="round"/>
<path d="M28.9585 26.3359L28.1045 19.5039C27.8542 17.5021 26.1526 16 24.1354 16H22.6665H21.1976C19.1804 16 17.4788 17.5021 17.2285 19.5039L16.3745 26.3359C16.1756 27.9275 17.4166 29.3333 19.0206 29.3333H26.3124C27.9164 29.3333 29.1574 27.9275 28.9585 26.3359Z" stroke="#5686E5" stroke-width="3.5" stroke-linecap="round" stroke-linejoin="round"/>
<path d="M22.667 10.6666C24.8761 10.6666 26.667 8.87577 26.667 6.66663C26.667 4.45749 24.8761 2.66663 22.667 2.66663C20.4579 2.66663 18.667 4.45749 18.667 6.66663C18.667 8.87577 20.4579 10.6666 22.667 10.6666Z" stroke="#5686E5" stroke-width="3.5"/>
</svg>
