<svg width="20" height="20" viewBox="0 0 20 20" fill="none" xmlns="http://www.w3.org/2000/svg">
<path fill-rule="evenodd" clip-rule="evenodd" d="M1.11111 0C1.72476 0 2.22222 0.497467 2.22222 1.11111V2.22222H4.44444V1.11111C4.44444 0.497467 4.94191 0 5.55556 0C6.1692 0 6.66667 0.497467 6.66667 1.11111V2.22222H8.88889V1.11111C8.88889 0.497467 9.38633 0 10 0C10.6137 0 11.1111 0.497467 11.1111 1.11111V2.22222H13.3333V1.11111C13.3333 0.497467 13.8308 0 14.4444 0C15.0581 0 15.5556 0.497467 15.5556 1.11111V2.22222H17.7778V1.11111C17.7778 0.497467 18.2752 0 18.8889 0C19.5026 0 20 0.497467 20 1.11111V3.33333V16.6667C20 18.5077 18.5077 20 16.6667 20H3.33333C1.49239 20 0 18.5077 0 16.6667V3.33333V1.11111C0 0.497467 0.497467 0 1.11111 0ZM17.7778 4.44444H14.4444H10H5.55556H2.22222V16.6667C2.22222 17.2803 2.71969 17.7778 3.33333 17.7778H16.6667C17.2803 17.7778 17.7778 17.2803 17.7778 16.6667V4.44444ZM11.1111 7.77778C11.1111 8.39144 10.6137 8.88889 10 8.88889C9.38633 8.88889 8.88889 8.39144 8.88889 7.77778C8.88889 7.16412 9.38633 6.66667 10 6.66667C10.6137 6.66667 11.1111 7.16412 11.1111 7.77778ZM14.4444 8.88889C15.0581 8.88889 15.5556 8.39144 15.5556 7.77778C15.5556 7.16412 15.0581 6.66667 14.4444 6.66667C13.8308 6.66667 13.3333 7.16412 13.3333 7.77778C13.3333 8.39144 13.8308 8.88889 14.4444 8.88889ZM6.66667 11.1111C6.66667 11.7248 6.1692 12.2222 5.55556 12.2222C4.94191 12.2222 4.44444 11.7248 4.44444 11.1111C4.44444 10.4974 4.94191 10 5.55556 10C6.1692 10 6.66667 10.4974 6.66667 11.1111ZM10 12.2222C10.6137 12.2222 11.1111 11.7248 11.1111 11.1111C11.1111 10.4974 10.6137 10 10 10C9.38633 10 8.88889 10.4974 8.88889 11.1111C8.88889 11.7248 9.38633 12.2222 10 12.2222ZM15.5556 11.1111C15.5556 11.7248 15.0581 12.2222 14.4444 12.2222C13.8308 12.2222 13.3333 11.7248 13.3333 11.1111C13.3333 10.4974 13.8308 10 14.4444 10C15.0581 10 15.5556 10.4974 15.5556 11.1111ZM5.55556 15.5556C6.1692 15.5556 6.66667 15.0581 6.66667 14.4444C6.66667 13.8308 6.1692 13.3333 5.55556 13.3333C4.94191 13.3333 4.44444 13.8308 4.44444 14.4444C4.44444 15.0581 4.94191 15.5556 5.55556 15.5556ZM11.1111 14.4444C11.1111 15.0581 10.6137 15.5556 10 15.5556C9.38633 15.5556 8.88889 15.0581 8.88889 14.4444C8.88889 13.8308 9.38633 13.3333 10 13.3333C10.6137 13.3333 11.1111 13.8308 11.1111 14.4444ZM14.4444 15.5556C15.0581 15.5556 15.5556 15.0581 15.5556 14.4444C15.5556 13.8308 15.0581 13.3333 14.4444 13.3333C13.8308 13.3333 13.3333 13.8308 13.3333 14.4444C13.3333 15.0581 13.8308 15.5556 14.4444 15.5556Z" fill="#5686E5"/>
</svg>
